# xmcd CD database file
#
# Track frame offsets:
#	150
#	16111
#	23695
#	40918
#	58998
#	84317
#	112194
#	127061
#	143622
#	150346
#	156682
#	158394
#	162568
#	185585
#	202092
#
# Disc length: 3075 seconds
#
# Revision: 0
# Processed by: cddbd v1.5.2PL0 Copyright (c) Steve Scherf et al.
# Submitted via: CDex 1.51
#
DISCID=c70c010f
DTITLE=Sahm, Doug - Doug Sahm Live from Austin, TX (1975)
DYEAR=2007
DGENRE=Country
TTITLE0=(Is Anybody Goin' To) San Antone
TTITLE1=Cotton Eyed Joe
TTITLE2=Rains Came
TTITLE3=Papa Ain't Salty
TTITLE4=Stormy Monday
TTITLE5=At the Crossroads
TTITLE6=Nuevo Laredo
TTITLE7=Dynamite Woman
TTITLE8=Crazy Baby 
TTITLE9=One Night
TTITLE10=Sometimes
TTITLE11=Wasted Days and Wasted Nights
TTITLE12=Mendocino
TTITLE13=It's Gonna Be Easy
TTITLE14=She's About a Mover
EXTD=YEAR: 2007
EXTT0=
EXTT1=
EXTT2=
EXTT3=
EXTT4=
EXTT5=
EXTT6=
EXTT7=
EXTT8=
EXTT9=
EXTT10=
EXTT11=
EXTT12=
EXTT13=
EXTT14=
PLAYORDER=
